<svg width="159" height="16" viewBox="0 0 159 16" fill="none" xmlns="http://www.w3.org/2000/svg">
<path d="M8.35667 14.6436L0.824167 15.2761L1.08292 12.2286L3.72792 12.4107L3.53625 4.67693L0.824167 4.97401L1.15958 1.00651H7.245L12.075 10.4461L15.2854 1.00651H21.3517V4.04443H18.5629L18.8025 12.3532L21.7446 12.4298L21.9075 14.6436L14.1163 15.2761V12.2286L16.9146 12.3148L15.8413 5.06984L12.2667 13.7619H10.81L6.02792 4.95484L5.47208 12.5065L8.18417 12.6886L8.35667 14.6436ZM37.7775 7.95443C37.7775 8.96387 37.6338 9.91262 37.3463 10.8007C37.0588 11.6823 36.6115 12.4554 36.0046 13.1198C35.3976 13.7779 34.6182 14.2986 33.6663 14.6819C32.7143 15.0653 31.5739 15.2569 30.245 15.2569C28.8969 15.2569 27.7438 15.0653 26.7854 14.6819C25.8335 14.2986 25.054 13.7779 24.4471 13.1198C23.8465 12.4554 23.4057 11.6823 23.1246 10.8007C22.8435 9.91262 22.7029 8.96387 22.7029 7.95443C22.7029 6.94498 22.8563 5.99623 23.1629 5.10818C23.4696 4.21373 23.9328 3.43748 24.5525 2.77943C25.1786 2.11498 25.9644 1.59109 26.91 1.20776C27.8556 0.824427 28.9672 0.63276 30.245 0.63276C31.2417 0.63276 32.1201 0.722205 32.8804 0.901093C33.6471 1.07359 34.3083 1.31957 34.8642 1.63901C35.42 1.95207 35.8832 2.3322 36.2538 2.77943C36.6307 3.22026 36.931 3.7122 37.1546 4.25526C37.3846 4.79832 37.5443 5.3829 37.6338 6.00901C37.7296 6.63512 37.7775 7.28359 37.7775 7.95443ZM36.0333 7.95443C36.0333 7.41776 35.9471 6.91304 35.7746 6.44026C35.6085 5.96109 35.305 5.54582 34.8642 5.19443C34.4297 4.83665 33.8388 4.55554 33.0913 4.35109C32.3438 4.14665 31.395 4.04443 30.245 4.04443C29.2611 4.04443 28.405 4.14665 27.6767 4.35109C26.9547 4.55554 26.3542 4.83665 25.875 5.19443C25.3958 5.54582 25.0381 5.96109 24.8017 6.44026C24.5717 6.91304 24.4567 7.41776 24.4567 7.95443C24.4567 8.49109 24.5621 8.99582 24.7729 9.46859C24.9901 9.93498 25.3288 10.3471 25.7888 10.7048C26.2551 11.0562 26.8525 11.3341 27.5808 11.5386C28.3156 11.743 29.2036 11.8453 30.245 11.8453C31.2672 11.8453 32.1425 11.743 32.8708 11.5386C33.5992 11.3341 34.1965 11.0562 34.6629 10.7048C35.1357 10.3471 35.4807 9.93498 35.6979 9.46859C35.9215 8.99582 36.0333 8.49109 36.0333 7.95443ZM46.9679 12.6886L46.8721 14.6436L39.3396 15.2761V12.2286L41.8121 12.3915L41.5917 4.20734L39.3396 4.32234L39.675 1.00651L46.1246 1.30359L52.0375 12.9569V3.98693L49.9963 4.04443V1.00651L57.2125 1.59109L57.0783 3.79526L54.9029 3.87193L53.6092 15.2761L51.7213 15.6498L44.3804 4.24568L43.6329 12.4873L46.9679 12.6886ZM76.0725 12.2094L76.015 14.6436L67.7638 14.9023V11.8836L69.6133 11.9603L67.4954 8.25151C67.061 8.39845 66.6361 8.52623 66.2208 8.63484C65.8119 8.73707 65.4222 8.82651 65.0517 8.90318C64.6875 8.97984 64.3489 9.04054 64.0358 9.08526C63.7228 9.12998 63.4481 9.16512 63.2117 9.19068L63.0775 12.0753L66.8054 12.2094L66.7479 14.6436L58.5063 14.9023V11.8836L61.0363 11.9794L60.5667 3.85276L58.5063 3.91026V0.89151L66.8054 1.22693L66.7479 3.65151L63.4896 3.77609L63.2883 7.89693C63.9528 7.8522 64.5661 7.74359 65.1283 7.57109C65.6906 7.3922 66.2017 7.17818 66.6617 6.92901C67.1281 6.67984 67.5433 6.40512 67.9075 6.10484C68.2781 5.80457 68.6007 5.50429 68.8754 5.20401C69.1565 4.90373 69.3929 4.61623 69.5846 4.34151C69.7826 4.06679 69.9424 3.8304 70.0638 3.63234L67.7446 3.44068L67.8021 1.00651L76.1108 1.08318L75.9479 4.13068L73.4754 3.92943C73.2263 4.35748 72.9388 4.75359 72.6129 5.11776C72.2871 5.47554 71.9357 5.80776 71.5588 6.11443C71.1882 6.4147 70.7953 6.68943 70.38 6.93859C69.9711 7.18137 69.5526 7.40179 69.1246 7.59984L73.0058 12.0944L76.0725 12.2094ZM86.9113 9.26734L82.4742 8.91276L82.3017 11.2319H89.8725L90.2463 9.36318H91.7413L91.4058 14.3561L77.4908 14.8832V11.2319H80.3371L79.925 4.77276L77.4908 4.93568V1.32276L91.7413 1.61984V7.14943L90.2463 7.44651L89.9492 4.13068L82.8096 4.60026L82.5892 7.38901L86.9113 7.13026V9.26734ZM104.957 12.2286L104.918 14.6628L96.6767 14.9215V11.9028L100.012 12.0369L99.3792 9.19068L95.4788 3.85276L92.805 3.92943V0.910677L101.114 1.24609L101.047 3.68026L98.8904 3.75693L100.913 7.83943L105.091 3.87193L101.871 4.14984L101.718 1.12151L110.017 1.04484L110.103 3.45984L107.448 3.68026L103.011 9.77526L102.369 12.1328L104.957 12.2286ZM118.287 12.6886L118.191 14.6436L110.659 15.2761V12.2286L113.131 12.3915L112.911 4.20734L110.659 4.32234L110.994 1.00651L117.444 1.30359L123.357 12.9569V3.98693L121.315 4.04443V1.00651L128.532 1.59109L128.398 3.79526L126.222 3.87193L124.928 15.2761L123.04 15.6498L115.7 4.24568L114.952 12.4873L118.287 12.6886ZM138.949 9.86151L134.473 9.50693L134.262 12.2957L137.789 12.1328V15.1611L129.547 14.9023L129.49 12.4682L132.432 12.3532L131.962 4.77276L129.528 4.93568V1.32276L143.779 1.61984V7.14943L141.891 7.24526L141.987 4.13068L134.847 4.60026L134.588 7.99276L138.949 7.71484V9.86151ZM155.298 12.2957L155.24 14.7298L146.999 14.979V11.9603L150.2 12.0944L149.586 4.36068L146.175 4.37984L146.117 7.18776H144.469L144.957 1.47609L157.56 0.968177L158.288 6.93859L156.477 7.18776L156.419 4.32234L152.615 4.34151L151.982 12.1519L155.298 12.2957Z" fill="url(#paint0_linear_1_3965)"/>
<defs>
<linearGradient id="paint0_linear_1_3965" x1="-4.60425" y1="11.3023" x2="8.67559" y2="61.6236" gradientUnits="userSpaceOnUse">
<stop stop-color="#E025CE"/>
<stop offset="1" stop-color="#4AED52"/>
</linearGradient>
</defs>
</svg>
